<svg width="86" height="21" viewBox="0 0 86 21" fill="none" xmlns="http://www.w3.org/2000/svg">
<g clip-path="url(#clip0_0_7231)">
<path d="M21.9207 6.46424C21.2345 5.02463 19.9335 4.09471 17.973 4.09471C17.3713 4.10519 16.78 4.25378 16.2447 4.52893C15.7095 4.80411 15.2446 5.19856 14.886 5.68183L14.8144 5.769V0.126854C14.8144 0.0942464 14.8015 0.0629761 14.7784 0.0399194C14.7553 0.0168621 14.724 0.00390625 14.6914 0.00390625H11.9195C11.8873 0.00449216 11.8566 0.017703 11.8341 0.0406968C11.8115 0.0636906 11.7988 0.0946301 11.7988 0.126854V16.3112C11.7988 16.3432 11.8116 16.3739 11.8342 16.3965C11.8568 16.4192 11.8875 16.4319 11.9195 16.4319H14.8882C14.9204 16.4319 14.9513 16.4193 14.9743 16.3967C14.9973 16.3741 15.0105 16.3434 15.0111 16.3112V9.4105C15.0111 8.06926 15.9053 7.1192 17.3359 7.1192C18.9007 7.1192 19.2964 8.4068 19.2964 9.71896V16.3112C19.2964 16.3432 19.3091 16.3739 19.3317 16.3965C19.3544 16.4192 19.3851 16.4319 19.4171 16.4319H22.3789C22.4113 16.4319 22.4422 16.4193 22.4652 16.3967C22.4882 16.3741 22.5014 16.3434 22.502 16.3112V9.32555C22.502 9.08636 22.502 8.85163 22.4707 8.62364C22.4198 7.87645 22.2335 7.14473 21.9207 6.46424Z" fill="white"/>
<path d="M7.0975 8.86285C7.0975 8.86285 5.58636 8.50742 5.02975 8.36436C4.47312 8.22129 3.50071 7.91727 3.50071 7.18182C3.50071 6.44637 4.28534 6.21164 5.08116 6.21164C5.87697 6.21164 6.7622 6.40389 6.83149 7.28689C6.83429 7.31872 6.84893 7.34829 6.87252 7.36985C6.89612 7.39138 6.92695 7.40323 6.9589 7.40313L9.88504 7.39195C9.90226 7.39199 9.91931 7.38848 9.93511 7.38165C9.9509 7.37481 9.96511 7.36478 9.97687 7.35217C9.98862 7.33961 9.99766 7.32472 10.0034 7.30849C10.0091 7.29224 10.0115 7.27499 10.0102 7.25781C9.82917 4.43227 7.35009 3.42188 5.06327 3.42188C2.35171 3.42188 0.368919 5.2102 0.368919 7.18182C0.368919 8.62142 0.775763 9.97162 3.97462 10.9105C4.53571 11.0737 5.298 11.286 5.96416 11.4716C6.76442 11.6951 7.19585 12.0327 7.19585 12.5647C7.19585 13.1817 6.30169 13.6108 5.42318 13.6108C4.15124 13.6108 3.24813 13.1392 3.17435 12.2919C3.17051 12.261 3.15543 12.2324 3.13192 12.2118C3.10843 12.1912 3.07819 12.1799 3.04693 12.1802L0.127495 12.1936C0.110379 12.1936 0.0934391 12.197 0.0776812 12.2037C0.0619235 12.2104 0.0476733 12.2202 0.0357809 12.2325C0.0238888 12.2448 0.0145966 12.2594 0.00846262 12.2753C0.00232868 12.2913 -0.000522068 12.3084 7.84871e-05 12.3255C0.134203 14.9923 2.70939 16.4297 5.11024 16.4297C8.68689 16.4297 10.3031 14.4178 10.3031 12.5334C10.3075 11.6482 10.1041 9.63182 7.0975 8.86285Z" fill="white"/>
<path d="M44.7412 4.09038C43.2549 4.09038 42.0096 4.913 41.2071 5.90556V4.20662C41.2071 4.17499 41.1946 4.14461 41.1724 4.12205C41.1506 4.09947 41.1202 4.08649 41.0885 4.08594H38.3123C38.2804 4.08594 38.2495 4.09862 38.2269 4.12126C38.2043 4.14391 38.1914 4.17463 38.1914 4.20662V20.078C38.1922 20.1095 38.2053 20.1399 38.2279 20.1619C38.2505 20.1841 38.2808 20.1965 38.3123 20.1965H41.2832C41.3145 20.1965 41.3446 20.1841 41.3668 20.1619C41.389 20.1397 41.4015 20.1093 41.4015 20.078V14.8606H41.4463C41.9178 15.5803 43.2077 16.4432 44.8934 16.4432C48.0629 16.4432 50.7053 13.8144 50.7053 10.2623C50.7077 6.85336 48.0787 4.09038 44.7412 4.09038ZM44.4663 13.4187C43.8408 13.4343 43.2242 13.263 42.6964 12.9268C42.1685 12.5906 41.7525 12.1047 41.5018 11.5311C41.2513 10.9575 41.1771 10.3223 41.2893 9.70641C41.4011 9.09055 41.6942 8.52205 42.1307 8.07346C42.5673 7.62481 43.1276 7.31644 43.7403 7.18769C44.3527 7.05894 44.9898 7.1156 45.5699 7.35049C46.1502 7.58536 46.6471 7.98781 46.9977 8.50645C47.3482 9.02511 47.5361 9.63639 47.5378 10.2623C47.5442 10.6715 47.4697 11.0779 47.3188 11.4583C47.168 11.8386 46.9432 12.1854 46.6578 12.4787C46.3726 12.772 46.0321 13.006 45.6557 13.1673C45.2797 13.3286 44.8756 13.4141 44.4663 13.4187Z" fill="white"/>
<path d="M29.4005 3.39258C26.6308 3.39258 25.2493 4.33368 24.1404 5.08703L24.1069 5.10937C24.0498 5.14849 24.0095 5.2078 23.9941 5.27534C23.9788 5.34291 23.9895 5.41375 24.0242 5.47375L25.1195 7.3604C25.1401 7.39572 25.1682 7.42606 25.2017 7.44923C25.2354 7.47242 25.2737 7.4879 25.3141 7.49454C25.3536 7.50166 25.394 7.49993 25.4326 7.48949C25.4713 7.47904 25.5072 7.46019 25.5377 7.43417L25.6247 7.36266C26.1947 6.88427 27.109 6.24493 29.3222 6.07057C30.5538 5.97224 31.618 6.29413 32.4024 7.02734C33.2654 7.82316 33.7819 9.10851 33.7819 10.4654C33.7819 12.9624 32.3109 14.5316 29.9481 14.5629C28.0009 14.5517 26.6932 13.5368 26.6932 12.0369C26.6932 11.2411 27.0531 10.7225 27.7552 10.2039C27.8087 10.1655 27.8465 10.1091 27.8618 10.045C27.8771 9.98089 27.8686 9.91344 27.8378 9.85513L26.8541 7.99526C26.8361 7.96198 26.8115 7.93261 26.782 7.90882C26.7525 7.88504 26.7186 7.86732 26.6821 7.85668C26.6448 7.8456 26.6058 7.84247 26.5674 7.84744C26.5287 7.85246 26.4916 7.8655 26.4585 7.88575C25.3544 8.54071 23.9996 9.73889 24.0734 12.0414C24.1628 14.972 26.5995 17.2096 29.7669 17.3013H29.9257H30.1425C33.9068 17.1783 36.6251 14.3841 36.6251 10.5951C36.6251 7.11675 34.0901 3.39258 29.4005 3.39258Z" fill="white"/>
<path d="M62.4126 5.18164H60.5257C60.4817 5.18222 60.4393 5.20007 60.4079 5.23137C60.3764 5.26269 60.3586 5.305 60.3584 5.3493V9.30818C60.3586 9.35228 60.3766 9.39432 60.4081 9.42528C60.4395 9.45624 60.4817 9.47362 60.5257 9.47362H62.4126C63.5615 9.47362 64.4089 8.56827 64.4089 7.32762C64.4089 6.08697 63.5615 5.18164 62.4126 5.18164Z" fill="white"/>
<path d="M68.209 12.1839C68.209 12.7584 68.694 13.078 69.5389 13.078C70.6879 13.078 71.3673 12.4566 71.3673 11.3545V11.0371L69.6464 11.1265C68.7386 11.1712 68.209 11.549 68.209 12.1839Z" fill="white"/>
<path d="M82.1806 0.0390823H56.8311C56.4155 0.0390819 56.0034 0.121031 55.6195 0.280243C55.2352 0.439455 54.8862 0.672813 54.5924 0.966977C54.2983 1.26114 54.0652 1.61035 53.9062 1.99465C53.7471 2.37895 53.6656 2.79079 53.666 3.20666V17.084C53.666 17.9237 53.9994 18.7291 54.593 19.3231C55.1866 19.917 55.9917 20.251 56.8311 20.2516H82.1806C82.5971 20.2528 83.0097 20.1719 83.3948 20.0136C83.7797 19.8552 84.1298 19.6224 84.4249 19.3286C84.7196 19.0348 84.9541 18.6858 85.1142 18.3014C85.2742 17.917 85.3566 17.5049 85.3574 17.0885V3.21112C85.358 2.79394 85.2766 2.38069 85.1172 1.99515C84.9579 1.60961 84.7238 1.25938 84.4287 0.964589C84.1335 0.669804 83.7829 0.436282 83.3972 0.27745C83.0115 0.118617 82.5981 0.037608 82.1806 0.0390823ZM62.509 11.0306H60.5151C60.4707 11.0306 60.4283 11.0482 60.3966 11.0797C60.3653 11.1111 60.3474 11.1538 60.3474 11.1983V14.0372C60.3474 14.0816 60.3298 14.1243 60.2985 14.1557C60.267 14.1872 60.2243 14.2048 60.1799 14.2048H58.7759C58.7319 14.2043 58.6893 14.1864 58.6579 14.1551C58.6266 14.1238 58.6092 14.0815 58.6084 14.0372V3.79679C58.6084 3.75235 58.626 3.7097 58.6577 3.67825C58.6891 3.64681 58.7315 3.62915 58.7759 3.62915H62.509C64.6238 3.62915 66.1371 5.16934 66.1371 7.33098C66.1371 9.49262 64.6349 11.035 62.5205 11.035L62.509 11.0306ZM73.0156 14.035C73.0159 14.0572 73.012 14.0792 73.0035 14.0998C72.9951 14.1204 72.9828 14.1392 72.9674 14.155C72.9515 14.1708 72.9331 14.1833 72.9125 14.1919C72.8923 14.2004 72.8701 14.2048 72.8479 14.2048H71.5223C71.5001 14.2048 71.4781 14.2004 71.4577 14.1919C71.4371 14.1833 71.4184 14.1708 71.403 14.155C71.3875 14.1392 71.375 14.1204 71.3669 14.0998C71.3586 14.0792 71.3544 14.0572 71.3548 14.035V13.7287C71.3568 13.7018 71.3505 13.675 71.336 13.6521C71.3219 13.6292 71.3007 13.6116 71.2753 13.6018C71.2504 13.592 71.2228 13.5906 71.1968 13.5978C71.1705 13.6049 71.1477 13.6202 71.1312 13.6415C70.7354 14.073 70.0917 14.3859 69.0656 14.3859C67.5547 14.3859 66.5551 13.5991 66.5551 12.2399C66.5407 11.9085 66.609 11.5787 66.7543 11.2805C66.8994 10.9823 67.117 10.725 67.387 10.5321C67.9322 10.123 68.7772 9.91065 70.0312 9.86145L71.3612 9.81676V9.42777C71.3612 8.64314 70.8337 8.31008 69.9864 8.31008C69.1393 8.31008 68.6049 8.60963 68.4801 9.09919C68.47 9.13375 68.4488 9.164 68.4194 9.18507C68.3905 9.20616 68.355 9.21682 68.3189 9.21541H67.0068C66.9827 9.21603 66.9587 9.21131 66.9365 9.20168C66.9147 9.19201 66.8947 9.17762 66.8786 9.1595C66.8627 9.14136 66.8509 9.12002 66.8441 9.09683C66.8372 9.07366 66.8354 9.0493 66.8392 9.02542C67.036 7.863 67.9971 6.98 70.0471 6.98C72.2243 6.98 73.0088 7.99266 73.0088 9.92627L73.0156 14.035ZM81.2733 7.39131L78.3226 15.2622C77.6519 17.0907 76.4782 17.5602 75.1928 17.5602C74.9508 17.5661 74.709 17.5367 74.4753 17.473C74.4388 17.4632 74.4069 17.4417 74.3835 17.4118C74.3608 17.3819 74.3483 17.3453 74.3479 17.3076V16.1116C74.3479 16.0866 74.3532 16.0619 74.3637 16.0392C74.3744 16.0165 74.3897 15.9965 74.4089 15.9805C74.4283 15.9644 74.4507 15.9529 74.4749 15.9466C74.4991 15.9403 74.5245 15.9394 74.549 15.944C74.7518 15.9824 74.9575 16.0019 75.1639 16.0021C75.5192 16.0199 75.8705 15.918 76.1612 15.7125C76.4516 15.507 76.6649 15.2099 76.7665 14.8688L76.8539 14.5938C76.8674 14.557 76.8674 14.5166 76.8539 14.4798L74.0952 7.39357C74.0868 7.36824 74.0845 7.34125 74.0884 7.31485C74.0926 7.28843 74.1027 7.26331 74.1178 7.24155C74.1334 7.21979 74.1538 7.20197 74.1774 7.18952C74.201 7.1771 74.2274 7.1704 74.2539 7.17002H75.5954C75.6296 7.17036 75.6629 7.18094 75.6913 7.20048C75.7196 7.21999 75.7414 7.24754 75.7539 7.27957L77.6273 12.2779C77.6398 12.3106 77.6616 12.3387 77.6904 12.3586C77.7193 12.3784 77.7532 12.389 77.7883 12.389C77.823 12.389 77.8574 12.3784 77.886 12.3586C77.9147 12.3387 77.9369 12.3106 77.949 12.2779L79.5745 7.29299C79.5852 7.25899 79.6068 7.22938 79.6357 7.20847C79.6647 7.18754 79.6993 7.17642 79.735 7.17674H81.1101C81.1365 7.17662 81.1627 7.18281 81.1867 7.19466C81.2102 7.20655 81.2311 7.22383 81.2469 7.24514C81.2628 7.26645 81.2733 7.29116 81.2778 7.31734C81.2826 7.34349 81.281 7.37036 81.2733 7.39579V7.39131Z" fill="white"/>
</g>
<defs>
<clipPath id="clip0_0_7231">
<rect width="85.5641" height="20.5536" fill="white"/>
</clipPath>
</defs>
</svg>
