<svg width="56" height="27" viewBox="0 0 56 27" fill="none" xmlns="http://www.w3.org/2000/svg">
<g clip-path="url(#clip0_0_7245)">
<path d="M26.4604 13.7892V20.2992H24.3604V4.19922H29.8204C31.1504 4.19922 32.4104 4.68922 33.3904 5.59922C34.3704 6.43922 34.8604 7.69922 34.8604 9.02922C34.8604 10.3592 34.3704 11.5492 33.3904 12.4592C32.4104 13.3692 31.2204 13.8592 29.8204 13.8592L26.4604 13.7892ZM26.4604 6.15922V11.7592H29.9604C30.7304 11.7592 31.5004 11.4792 31.9904 10.9192C33.1104 9.86922 33.1104 8.11922 32.0604 7.06922L31.9904 6.99922C31.4304 6.43922 30.7304 6.08922 29.9604 6.15922H26.4604Z" fill="white"/>
<path d="M39.6904 8.96094C41.2304 8.96094 42.4204 9.38094 43.3304 10.2209C44.2404 11.0609 44.6604 12.1809 44.6604 13.5809V20.3009H42.7004V18.7609H42.6304C41.7904 20.0209 40.6004 20.6509 39.2004 20.6509C38.0104 20.6509 36.9604 20.3009 36.1204 19.6009C35.3504 18.9009 34.8604 17.9209 34.8604 16.8709C34.8604 15.7509 35.2804 14.8409 36.1204 14.1409C36.9604 13.4409 38.1504 13.1609 39.5504 13.1609C40.8104 13.1609 41.7904 13.3709 42.5604 13.8609V13.3709C42.5604 12.6709 42.2804 11.9709 41.7204 11.5509C41.1604 11.0609 40.4604 10.7809 39.6904 10.7809C38.5004 10.7809 37.5904 11.2709 36.9604 12.2509L35.1404 11.1309C36.2604 9.66094 37.7304 8.96094 39.6904 8.96094ZM37.0304 16.9409C37.0304 17.5009 37.3104 17.9909 37.7304 18.2709C38.2204 18.6209 38.7804 18.8309 39.3404 18.8309C40.1804 18.8309 41.0204 18.4809 41.6504 17.8509C42.3504 17.2209 42.7004 16.4509 42.7004 15.6109C42.0704 15.1209 41.1604 14.8409 39.9704 14.8409C39.1304 14.8409 38.4304 15.0509 37.8704 15.4709C37.3104 15.8209 37.0304 16.3109 37.0304 16.9409Z" fill="white"/>
<path d="M55.9998 9.31055L49.0698 25.2005H46.9698L49.5598 19.6705L45.0098 9.38055H47.2498L50.5398 17.2905H50.6098L53.8298 9.38055H55.9998V9.31055Z" fill="white"/>
<path d="M18.13 12.39C18.13 11.76 18.06 11.13 17.99 10.5H9.24002V14.07H14.21C14 15.19 13.37 16.24 12.39 16.87V19.18H15.4C17.15 17.57 18.13 15.19 18.13 12.39Z" fill="#4285F4"/>
<path d="M9.24047 21.4197C11.7605 21.4197 13.8605 20.5797 15.4005 19.1797L12.3905 16.8697C11.5505 17.4297 10.5005 17.7797 9.24047 17.7797C6.86047 17.7797 4.76047 16.1697 4.06047 13.9297H0.980469V16.3097C2.59047 19.4597 5.74047 21.4197 9.24047 21.4197Z" fill="#34A853"/>
<path d="M4.05992 13.9305C3.63992 12.8105 3.63992 11.5505 4.05992 10.3605V7.98047H0.979922C-0.350078 10.5705 -0.350078 13.6505 0.979922 16.3105L4.05992 13.9305Z" fill="#FBBC04"/>
<path d="M9.2398 6.57931C10.5698 6.57931 11.8298 7.06931 12.8098 7.97931L15.4698 5.31931C13.7898 3.77931 11.5498 2.86931 9.3098 2.93931C5.8098 2.93931 2.5898 4.89931 1.0498 8.04931L4.1298 10.4293C4.7598 8.18931 6.8598 6.57931 9.2398 6.57931Z" fill="#EA4335"/>
</g>
<defs>
<clipPath id="clip0_0_7245">
<rect width="56" height="26.67" fill="white"/>
</clipPath>
</defs>
</svg>
